<svg width="24" height="25" viewBox="0 0 24 25" fill="none" xmlns="http://www.w3.org/2000/svg">
<g id="Date + Time / Calendar 02">
<path id="Shape" d="M4 9.5H20V11.5H4V9.5Z" fill="#20512E"/>
<path id="Shape_2" fill-rule="evenodd" clip-rule="evenodd" d="M8.7587 5.5H15.2413C16.0463 5.49999 16.7106 5.49998 17.2518 5.54419C17.8139 5.59012 18.3306 5.68868 18.816 5.93597C19.5686 6.31947 20.1805 6.93139 20.564 7.68404C20.8113 8.16937 20.9099 8.68608 20.9558 9.24817C21 9.78936 21 10.4537 21 11.2587V15.7413C21 16.5463 21 17.2106 20.9558 17.7518C20.9099 18.3139 20.8113 18.8306 20.564 19.316C20.1805 20.0686 19.5686 20.6805 18.816 21.064C18.3306 21.3113 17.8139 21.4099 17.2518 21.4558C16.7106 21.5 16.0463 21.5 15.2413 21.5H8.75873C7.95374 21.5 7.28938 21.5 6.74817 21.4558C6.18608 21.4099 5.66937 21.3113 5.18404 21.064C4.43139 20.6805 3.81947 20.0686 3.43597 19.316C3.18868 18.8306 3.09012 18.3139 3.04419 17.7518C2.99998 17.2106 2.99999 16.5463 3 15.7413V11.2587C2.99999 10.4537 2.99998 9.78937 3.04419 9.24818C3.09012 8.68608 3.18868 8.16937 3.43597 7.68404C3.81947 6.93139 4.43139 6.31947 5.18404 5.93597C5.66937 5.68868 6.18608 5.59012 6.74817 5.54419C7.28937 5.49998 7.95373 5.49999 8.7587 5.5ZM6.91104 7.53755C6.47262 7.57337 6.24842 7.6383 6.09202 7.71799C5.7157 7.90973 5.40973 8.2157 5.21799 8.59202C5.1383 8.74842 5.07337 8.97262 5.03755 9.41104C5.00078 9.86113 5 10.4434 5 11.3V15.7C5 16.5566 5.00078 17.1389 5.03755 17.589C5.07337 18.0274 5.1383 18.2516 5.21799 18.408C5.40973 18.7843 5.7157 19.0903 6.09202 19.282C6.24842 19.3617 6.47262 19.4266 6.91104 19.4624C7.36113 19.4992 7.94342 19.5 8.8 19.5H15.2C16.0566 19.5 16.6389 19.4992 17.089 19.4624C17.5274 19.4266 17.7516 19.3617 17.908 19.282C18.2843 19.0903 18.5903 18.7843 18.782 18.408C18.8617 18.2516 18.9266 18.0274 18.9624 17.589C18.9992 17.1389 19 16.5566 19 15.7V11.3C19 10.4434 18.9992 9.86113 18.9624 9.41104C18.9266 8.97262 18.8617 8.74842 18.782 8.59202C18.5903 8.2157 18.2843 7.90973 17.908 7.71799C17.7516 7.6383 17.5274 7.57337 17.089 7.53755C16.6389 7.50078 16.0566 7.5 15.2 7.5H8.8C7.94342 7.5 7.36113 7.50078 6.91104 7.53755Z" fill="#20512E"/>
<g id="Shape_3">
<path d="M9 4.5C9 3.94772 8.55228 3.5 8 3.5C7.44772 3.5 7 3.94772 7 4.5V6.5C7 7.05228 7.44772 7.5 8 7.5C8.55228 7.5 9 7.05228 9 6.5V4.5Z" fill="#20512E"/>
<path d="M17 4.5C17 3.94772 16.5523 3.5 16 3.5C15.4477 3.5 15 3.94772 15 4.5V6.5C15 7.05228 15.4477 7.5 16 7.5C16.5523 7.5 17 7.05228 17 6.5V4.5Z" fill="#20512E"/>
</g>
</g>
</svg>
