<svg width="73" height="74" viewBox="0 0 73 74" fill="none" xmlns="http://www.w3.org/2000/svg">
<path d="M55.8621 50.7738L32.7288 50.7449C32.5434 50.7594 32.2084 50.7666 32.0943 50.7666C31.859 50.7666 31.6166 50.7594 31.3885 50.7449H31.3814C25.9492 50.3547 21.6433 45.5635 21.6433 39.7244C21.6433 33.683 26.327 28.7545 32.1085 28.7039C33.3775 23.0672 38.2608 18.948 43.9069 18.948C46.9581 18.948 49.8666 20.1332 52.1123 22.2867C53.9658 24.0717 55.2347 26.3914 55.7551 28.9279C56.4538 28.7762 57.1666 28.7039 57.8867 28.7039C63.711 28.7039 68.4517 33.6469 68.4517 39.7244C68.4517 45.802 63.711 50.7449 57.8867 50.7449C57.5231 50.7449 57.1952 50.7522 56.8672 50.7594C56.5251 50.7666 56.2042 50.7738 55.8621 50.7738ZM32.8357 48.2156L55.8621 48.2445C56.1829 48.2445 56.4894 48.2373 56.8031 48.2301C57.1453 48.2229 57.4946 48.2156 57.8795 48.2156C62.328 48.2156 65.9495 44.4072 65.9495 39.7244C65.9495 35.0416 62.328 31.2332 57.8795 31.2332C56.9457 31.2332 56.0332 31.3994 55.1634 31.7318L53.6307 32.31L53.4881 30.6551C53.0319 25.423 48.9114 21.4773 43.9069 21.4773C39.1305 21.4773 35.0385 25.2207 34.3827 30.1854L34.2187 31.3994L33.0139 31.2766C32.743 31.2477 32.4721 31.2332 32.2083 31.2332C27.7599 31.2332 24.1384 35.0416 24.1384 39.7244C24.1384 44.1977 27.3821 47.8832 31.4883 48.2156L32.629 48.2084C32.6931 48.2012 32.7715 48.2084 32.8357 48.2156Z" fill="#1A1A1A"/>
<path d="M44.5129 31.5656C43.2867 31.5656 42.1105 31.7969 41.0269 32.216C40.4637 25.6254 35.3237 20.4656 29.0574 20.4656C22.9836 20.4656 17.9648 25.3147 17.1521 31.6162C16.81 31.5801 16.4678 31.5584 16.1185 31.5584C10.4225 31.5584 5.81006 36.5303 5.81006 42.6584C5.81006 48.7865 10.3013 53.7801 15.9901 53.7801C16.147 53.7801 17.088 53.7439 16.5747 53.7439V53.7584L42.2887 53.7873C43.0372 53.7873 43.7073 53.7584 44.52 53.7584C50.216 53.7584 54.8284 48.7865 54.8284 42.6584C54.8213 36.5303 50.2089 31.5656 44.5129 31.5656Z" fill="#A2C4FF"/>
<path d="M7.6209 36.4074C6.84385 37.9684 6.40186 39.7461 6.40186 41.6395C6.40186 47.7676 10.8931 52.7611 16.5819 52.7611C16.6817 52.7611 17.0738 52.7467 17.2449 52.7322H17.1665V52.7178C17.359 52.7178 17.3447 52.725 17.2449 52.7322L42.8805 52.7611C43.2227 52.7611 43.5506 52.7539 43.8785 52.7467L43.9783 52.6021C22.7556 52.6094 11.3493 50.2391 7.6209 36.4074Z" fill="#77A9FF"/>
<path d="M42.2887 55.0592L16.6959 55.0303C16.6317 55.0375 16.5462 55.0375 16.4606 55.0447C16.2682 55.052 16.0614 55.0592 15.9901 55.0592C12.8962 55.0592 10.0019 53.7584 7.84893 51.3881C5.73164 49.0611 4.5625 45.9609 4.5625 42.6728C4.5625 35.8582 9.74521 30.3154 16.1113 30.3082C17.4516 23.9055 22.8339 19.2082 29.0646 19.2082C32.408 19.2082 35.6018 20.5451 38.0612 22.9732C40.1286 25.0111 41.5187 27.6777 42.0677 30.59C42.8732 30.4021 43.6931 30.3082 44.52 30.3082C46.4377 30.3082 48.3411 30.8213 50.0164 31.7969C50.6152 32.1437 50.822 32.917 50.4798 33.524C50.1376 34.1311 49.3748 34.3406 48.776 33.9937C47.4785 33.2422 46.0028 32.8447 44.52 32.8447C43.4792 32.8447 42.4526 33.0398 41.476 33.4156L39.929 34.0154L39.7864 32.3461C39.2731 26.3047 34.6607 21.752 29.0574 21.752C23.7107 21.752 19.1269 26.0734 18.3854 31.8041L18.2286 33.0254L17.0167 32.8953C16.7173 32.8664 16.4107 32.8447 16.1113 32.8447C11.114 32.8447 7.05049 37.2529 7.05049 42.6728C7.05049 47.8615 10.7076 52.1324 15.32 52.501L16.5676 52.4865H16.7244C16.7743 52.4865 16.8171 52.4937 16.867 52.501L42.2815 52.5299C42.638 52.5299 42.9802 52.5227 43.3224 52.5154C43.6931 52.5082 44.0852 52.501 44.5058 52.501C48.7831 52.501 52.5115 49.2057 53.3741 44.6674C53.5024 43.9809 54.1583 43.5328 54.8355 43.6629C55.5128 43.793 55.9548 44.4578 55.8265 45.1443C54.7357 50.875 49.9736 55.0303 44.5058 55.0303C44.1065 55.0303 43.7358 55.0375 43.3723 55.0447C43.0229 55.052 42.6665 55.0592 42.2887 55.0592Z" fill="#1A1A1A"/>
</svg>
