<svg width="24" height="25" viewBox="0 0 24 25" fill="none" xmlns="http://www.w3.org/2000/svg">
<g id="Navigation + Travel / Location">
<path id="Shape" fill-rule="evenodd" clip-rule="evenodd" d="M12 4.5C8.13401 4.5 5 7.63401 5 11.5C5 13.7061 6.33607 15.768 8.20492 17.3876L11.6463 20.3702C11.8493 20.5461 12.1507 20.5461 12.3537 20.3702L15.7951 17.3876C17.6639 15.768 19 13.7061 19 11.5C19 7.63401 15.866 4.5 12 4.5ZM3 11.5C3 6.52944 7.02944 2.5 12 2.5C16.9706 2.5 21 6.52944 21 11.5C21 14.5264 19.1902 17.0918 17.1049 18.899L13.6635 21.8816C12.7088 22.709 11.2912 22.709 10.3365 21.8816L6.89505 18.899C4.80977 17.0918 3 14.5264 3 11.5Z" fill="#20512E"/>
<path id="Shape_2" d="M14 11.5C14 12.6046 13.1046 13.5 12 13.5C10.8954 13.5 10 12.6046 10 11.5C10 10.3954 10.8954 9.5 12 9.5C13.1046 9.5 14 10.3954 14 11.5Z" fill="#20512E"/>
</g>
</svg>
