<svg width="104" height="29" viewBox="0 0 104 29" fill="none" xmlns="http://www.w3.org/2000/svg">
<path d="M4.74414 21.5H0.328125L8.50391 0.992188H12.9473L21.1094 21.5H16.6934L15.0117 17.0977H6.42578L4.74414 21.5ZM7.80664 13.4062H13.6445L10.7188 5.80469L7.80664 13.4062ZM28.6973 21.6641C27.4668 21.6641 26.3639 21.3587 25.3887 20.748C24.4134 20.1283 23.6478 19.2897 23.0918 18.2324C22.5358 17.166 22.2578 15.9583 22.2578 14.6094C22.2578 13.2513 22.5358 12.0436 23.0918 10.9863C23.6478 9.92904 24.4134 9.09505 25.3887 8.48438C26.3639 7.86458 27.4714 7.55469 28.7109 7.55469C29.6771 7.55469 30.5612 7.74609 31.3633 8.12891C32.1745 8.5026 32.8717 9.02214 33.4551 9.6875L33.6328 7.82812H37.0781V21.1172C37.0781 22.6302 36.7454 23.9473 36.0801 25.0684C35.4238 26.1986 34.4941 27.069 33.291 27.6797C32.0879 28.2995 30.6797 28.6094 29.0664 28.6094C26.8242 28.6094 24.7917 27.9076 22.9688 26.5039L24.5547 23.3047C25.7669 24.4987 27.1797 25.0957 28.793 25.0957C29.6589 25.0957 30.4154 24.9225 31.0625 24.5762C31.7188 24.2298 32.2292 23.7467 32.5938 23.127C32.9674 22.5072 33.1543 21.7871 33.1543 20.9668V19.8457C32.5892 20.4108 31.9284 20.8574 31.1719 21.1855C30.4154 21.5046 29.5905 21.6641 28.6973 21.6641ZM29.709 18.1641C30.347 18.1641 30.9258 18.0273 31.4453 17.7539C31.9648 17.4714 32.3796 17.084 32.6895 16.5918C32.9993 16.0905 33.1543 15.5254 33.1543 14.8965V14.3086C33.1543 13.6797 32.9948 13.1191 32.6758 12.627C32.3659 12.1348 31.9512 11.752 31.4316 11.4785C30.9212 11.196 30.347 11.0547 29.709 11.0547C29.0527 11.0547 28.4648 11.2096 27.9453 11.5195C27.4258 11.8294 27.0156 12.2533 26.7148 12.791C26.4141 13.3197 26.2637 13.9258 26.2637 14.6094C26.2637 15.293 26.4141 15.9036 26.7148 16.4414C27.0156 16.9792 27.4258 17.403 27.9453 17.7129C28.4648 18.0137 29.0527 18.1641 29.709 18.1641ZM44.2012 21.5H40.2773V7.82812H43.6953L43.832 10.1934C44.2878 9.36393 44.9076 8.7168 45.6914 8.25195C46.4753 7.78711 47.373 7.55469 48.3848 7.55469C48.6764 7.55469 48.9681 7.57747 49.2598 7.62305C49.5605 7.65951 49.8659 7.71875 50.1758 7.80078L49.6836 11.3281C49.082 11.1549 48.5124 11.0684 47.9746 11.0684C47.2181 11.0684 46.5527 11.2415 45.9785 11.5879C45.4134 11.9251 44.9759 12.3991 44.666 13.0098C44.3561 13.6113 44.2012 14.3177 44.2012 15.1289V21.5ZM58.4746 21.7734C57.071 21.7734 55.8132 21.4681 54.7012 20.8574C53.5892 20.2376 52.7142 19.3945 52.0762 18.3281C51.4473 17.2526 51.1328 16.0312 51.1328 14.6641C51.1328 13.306 51.4473 12.0938 52.0762 11.0273C52.7142 9.95182 53.5892 9.10417 54.7012 8.48438C55.8132 7.86458 57.071 7.55469 58.4746 7.55469C59.8783 7.55469 61.127 7.86458 62.2207 8.48438C63.3236 9.10417 64.1895 9.95182 64.8184 11.0273C65.4564 12.0938 65.7754 13.306 65.7754 14.6641C65.7754 16.0312 65.4564 17.2526 64.8184 18.3281C64.1895 19.3945 63.3236 20.2376 62.2207 20.8574C61.127 21.4681 59.8783 21.7734 58.4746 21.7734ZM58.4609 18.2598C59.0898 18.2598 59.6504 18.1048 60.1426 17.7949C60.6439 17.4759 61.0358 17.0475 61.3184 16.5098C61.61 15.9629 61.7559 15.3385 61.7559 14.6367C61.7559 13.9622 61.61 13.3561 61.3184 12.8184C61.0358 12.2806 60.6439 11.8568 60.1426 11.5469C59.6504 11.2279 59.0898 11.0684 58.4609 11.0684C57.8229 11.0684 57.2533 11.2279 56.752 11.5469C56.2598 11.8568 55.8678 12.2806 55.5762 12.8184C55.2936 13.3561 55.1523 13.9622 55.1523 14.6367C55.1523 15.3385 55.2936 15.9629 55.5762 16.5098C55.8678 17.0475 56.2598 17.4759 56.752 17.7949C57.2533 18.1048 57.8229 18.2598 58.4609 18.2598Z" fill="#20512E"/>
<path d="M68.2773 21.5V0.992188H75.8652C78.071 0.992188 79.7799 1.46159 80.9922 2.40039C82.2135 3.33008 82.8242 4.63802 82.8242 6.32422C82.8242 7.35417 82.5827 8.26562 82.0996 9.05859C81.6165 9.84245 80.9648 10.4395 80.1445 10.8496C81.3112 11.196 82.2181 11.793 82.8652 12.6406C83.5215 13.4792 83.8496 14.5091 83.8496 15.7305C83.8496 16.8971 83.5625 17.9134 82.9883 18.7793C82.4232 19.6361 81.6211 20.306 80.582 20.7891C79.5521 21.263 78.3398 21.5 76.9453 21.5H68.2773ZM72.4883 9.57812H75.6328C76.5716 9.57812 77.3145 9.35482 77.8613 8.9082C78.4082 8.46159 78.6816 7.85547 78.6816 7.08984C78.6816 6.34245 78.4036 5.75456 77.8477 5.32617C77.3008 4.88867 76.5397 4.66992 75.5645 4.66992H72.4883V9.57812ZM72.4883 17.8223H75.8926C76.64 17.8223 77.2871 17.7174 77.834 17.5078C78.3809 17.2891 78.8001 16.9837 79.0918 16.5918C79.3926 16.1908 79.543 15.7259 79.543 15.1973C79.543 14.6686 79.4062 14.2174 79.1328 13.8438C78.8685 13.4701 78.4811 13.1875 77.9707 12.9961C77.4603 12.7956 76.8542 12.6953 76.1523 12.6953H72.4883V17.8223ZM88.3887 4.56055C87.8691 4.56055 87.4316 4.37826 87.0762 4.01367C86.7207 3.64909 86.543 3.20703 86.543 2.6875C86.543 2.16797 86.7207 1.73047 87.0762 1.375C87.4316 1.01042 87.8691 0.828125 88.3887 0.828125C88.9173 0.828125 89.3594 1.01042 89.7148 1.375C90.0794 1.73047 90.2617 2.16797 90.2617 2.6875C90.2617 3.20703 90.0794 3.64909 89.7148 4.01367C89.3594 4.37826 88.9173 4.56055 88.3887 4.56055ZM90.3574 21.5H86.4336V7.82812H90.3574V21.5ZM103.291 21.1445C102.243 21.5638 101.227 21.7734 100.242 21.7734C99.2214 21.7734 98.319 21.5592 97.5352 21.1309C96.7604 20.6934 96.1543 20.0872 95.7168 19.3125C95.2793 18.5286 95.0605 17.6263 95.0605 16.6055V11.3281H92.668V7.82812H95.2656V4.41016H98.9844V7.82812H102.771V11.3281H98.9844V15.8945C98.9844 16.6419 99.1895 17.2253 99.5996 17.6445C100.01 18.0547 100.52 18.2598 101.131 18.2598C101.687 18.2598 102.229 18.0866 102.758 17.7402L103.291 21.1445Z" fill="#E2A900"/>
</svg>
