<svg width="32" height="32" viewBox="0 0 32 32" fill="none" xmlns="http://www.w3.org/2000/svg">
<path fill-rule="evenodd" clip-rule="evenodd" d="M13.8754 5.59726C13.5353 3.4641 10.4651 3.4641 10.125 5.59726C9.75357 7.92608 7.92732 9.75244 5.59859 10.1238C3.46553 10.464 3.46549 13.534 5.59859 13.8742C7.92731 14.2456 9.75357 16.072 10.1249 18.4008C10.4651 20.534 13.5353 20.534 13.8754 18.4008C14.2468 16.072 16.0731 14.2456 18.4018 13.8742C20.5349 13.534 20.5349 10.464 18.4018 10.1238C16.0731 9.75244 14.2468 7.92608 13.8754 5.59726ZM8.37684 11.999C9.94238 11.2145 11.2157 9.94109 12.0002 8.37552C12.7847 9.94109 14.058 11.2145 15.6236 11.999C14.058 12.7836 12.7847 14.057 12.0002 15.6226C11.2157 14.057 9.94239 12.7836 8.37684 11.999Z" fill="#131313"/>
<path d="M25.3334 26.6667C25.3334 27.403 24.7365 28 24.0001 28C23.2637 28 22.6667 27.403 22.6667 26.6667V25.3333H21.3334C20.597 25.3333 20.0001 24.7364 20.0001 24C20.0001 23.2636 20.597 22.6667 21.3334 22.6667H22.6667V21.3333C22.6667 20.5969 23.2637 20 24.0001 20C24.7365 20 25.3334 20.5969 25.3334 21.3333V22.6667H26.6667C27.4031 22.6667 28.0001 23.2636 28.0001 24C28.0001 24.7364 27.4031 25.3333 26.6667 25.3333H25.3334V26.6667Z" fill="#131313"/>
<path d="M24 14.6667C24.7364 14.6667 25.3333 14.0697 25.3333 13.3333C25.3333 12.597 24.7364 12 24 12C23.2636 12 22.6667 12.597 22.6667 13.3333C22.6667 14.0697 23.2636 14.6667 24 14.6667Z" fill="#131313"/>
<path d="M13.3333 25.3333C14.0697 25.3333 14.6667 24.7364 14.6667 24C14.6667 23.2636 14.0697 22.6667 13.3333 22.6667C12.597 22.6667 12 23.2636 12 24C12 24.7364 12.597 25.3333 13.3333 25.3333Z" fill="#131313"/>
</svg>
